<svg xmlns="http://www.w3.org/2000/svg" xmlns:xlink="http://www.w3.org/1999/xlink" width="500" zoomAndPan="magnify" viewBox="0 0 375 374.999991" height="500" preserveAspectRatio="xMidYMid meet" version="1.0"><defs><clipPath id="e1987a5eba"><path d="M 23 1 L 374.671875 1 L 374.671875 349 L 23 349 Z M 23 1 " clip-rule="nonzero"/></clipPath><clipPath id="7cb2ad6120"><path d="M 3.421875 4 L 358 4 L 358 358 L 3.421875 358 Z M 3.421875 4 " clip-rule="nonzero"/></clipPath></defs><path fill="#2d3c92" d="M 13.75 130.214844 L 132.757812 130.214844 L 132.757812 10.589844 L 233.15625 10.589844 L 233.15625 130.214844 L 352.78125 130.214844 L 352.78125 230.609375 L 233.15625 230.609375 L 233.15625 349.617188 L 132.757812 349.617188 L 132.757812 230.609375 L 13.75 230.609375 Z M 13.75 130.214844 " fill-opacity="1" fill-rule="nonzero"/><g clip-path="url(#e1987a5eba)"><path fill="#000000" d="M 26.839844 131.058594 L 87.675781 125.894531 L 87.871094 125.894531 L 152.246094 131.058594 L 149.941406 133.492188 L 144.679688 101.535156 L 139.578125 69.34375 L 139.578125 68.792969 L 142.4375 10.621094 L 142.4375 8.28125 L 144.777344 7.957031 L 168.84375 4.386719 L 192.847656 1.136719 L 193.429688 1.136719 L 241.761719 4.710938 L 243.871094 4.710938 L 244.199219 6.757812 L 252.902344 64.734375 L 252.902344 65.21875 L 247.023438 127.355469 L 245.757812 125.957031 L 307.695312 128.785156 L 307.503906 128.785156 C 317.246094 127.582031 326.988281 126.25 336.734375 124.917969 L 365.964844 120.988281 L 367.167969 120.988281 L 367.167969 122.191406 C 368.230469 139.1875 369.398438 156.15625 370.675781 173.085938 L 374.574219 223.917969 L 374.574219 225.867188 L 372.558594 225.867188 L 310.652344 229.441406 L 311.011719 229.441406 L 250.273438 227.71875 L 253.292969 224.730469 L 254.917969 341.464844 L 254.917969 344.714844 L 251.667969 344.941406 L 205.285156 348.1875 L 204.960938 348.1875 L 159.328125 347.3125 L 156.339844 347.3125 L 156.078125 344.324219 C 152.789062 306.515625 149.613281 268.699219 146.5625 230.871094 L 149.191406 233.4375 L 91.117188 228.890625 L 91.378906 228.890625 L 35.902344 230.1875 L 34.246094 230.1875 L 33.921875 228.792969 L 23.558594 183.578125 L 23.558594 183.253906 Z M 27.328125 131.511719 L 25.898438 183.351562 L 25.898438 183.027344 L 37.460938 227.980469 L 35.640625 226.582031 L 91.117188 224.015625 L 91.378906 224.015625 L 149.582031 227.71875 L 151.984375 227.71875 L 152.214844 230.15625 L 157.769531 286.964844 L 162.769531 343.675781 L 159.523438 340.652344 L 205.1875 341.464844 L 204.800781 341.464844 L 251.179688 338.21875 L 247.933594 341.464844 L 247.25 224.730469 L 247.25 221.484375 L 250.304688 221.484375 L 311.011719 223.984375 L 310.816406 223.984375 L 372.949219 222.003906 L 371.097656 224.082031 L 365.285156 122.257812 L 366.550781 123.296875 L 337.320312 127.0625 C 327.574219 128.296875 317.832031 129.53125 308.085938 130.894531 L 246.148438 128.621094 L 244.816406 128.621094 L 244.816406 127.257812 L 249.265625 65.1875 L 249.265625 65.675781 L 238.96875 7.796875 L 241.40625 10.003906 L 193.042969 6.757812 L 193.625 6.757812 L 169.65625 10.265625 L 145.652344 13.511719 L 148.089844 10.882812 L 144.742188 69.34375 L 144.742188 68.824219 L 149.582031 100.6875 L 154.226562 132.746094 L 154.617188 135.476562 L 151.953125 135.214844 L 87.707031 128.71875 L 87.871094 128.71875 Z M 27.328125 131.511719 " fill-opacity="1" fill-rule="nonzero"/></g><g clip-path="url(#7cb2ad6120)"><path fill="#000000" d="M 3.421875 141.613281 L 63.835938 141.808594 L 126.488281 136.386719 L 125.773438 137.292969 L 115.769531 74.800781 L 109.273438 11.886719 L 109.273438 10.652344 L 110.507812 10.652344 L 164.167969 4.15625 L 164.492188 4.15625 L 212.5625 8.605469 L 213.859375 8.605469 L 214.054688 9.90625 L 221.429688 67.203125 L 221.429688 67.429688 L 221.039062 131.773438 L 218.699219 129.792969 L 282.167969 118.066406 L 282.425781 118.066406 L 343.261719 114.816406 L 345.699219 114.816406 L 345.699219 117.253906 L 346.023438 168.863281 L 346.023438 168.410156 L 356.578125 223.011719 L 357.230469 226.257812 L 353.820312 226.257812 L 289.246094 223.074219 L 289.863281 223.074219 L 233.347656 232.820312 L 235.914062 229.570312 L 241.503906 286.085938 L 241.503906 286.574219 L 238.253906 343.835938 L 238.253906 346.304688 L 235.882812 346.824219 L 189.371094 357.023438 L 188.363281 357.023438 L 141.949219 352.347656 L 139.351562 352.085938 L 139.058594 349.519531 L 135.8125 320.289062 C 134.773438 310.542969 133.503906 300.800781 132.5625 291.054688 L 128.925781 232.589844 L 131.589844 235.027344 L 70.265625 235.675781 L 70.558594 235.675781 L 11.117188 244.511719 L 9.363281 244.738281 L 9.363281 242.984375 Z M 3.910156 142.035156 L 8.324219 192.285156 L 12.484375 242.789062 L 10.597656 241.296875 L 69.84375 231.292969 L 70.167969 231.292969 L 131.457031 229.765625 L 133.925781 229.765625 L 134.121094 232.265625 L 138.34375 290.730469 C 139.285156 300.476562 140.652344 310.21875 141.789062 319.964844 L 145.359375 349.195312 L 142.503906 346.371094 L 188.917969 350.980469 L 187.878906 350.980469 L 234.390625 340.785156 L 231.855469 343.773438 L 235.101562 286.507812 L 235.101562 286.996094 L 229.875 230.027344 L 229.613281 227.136719 L 232.441406 226.679688 L 289.054688 217.324219 L 289.671875 217.324219 L 354.207031 220.898438 L 351.449219 224.148438 L 341.214844 169.386719 L 341.214844 117.351562 L 343.683594 119.691406 L 282.753906 122.515625 L 283.011719 122.515625 L 219.316406 133.722656 L 216.945312 134.109375 L 216.945312 131.738281 L 217.792969 67.300781 L 217.792969 67.558594 L 210.644531 10.230469 L 212.105469 11.660156 L 164.070312 6.851562 L 164.394531 6.851562 L 110.605469 13.023438 L 111.710938 11.660156 L 117.785156 74.542969 L 127.269531 137.035156 L 127.269531 137.878906 L 126.425781 137.878906 L 63.738281 142.847656 Z M 3.910156 142.035156 " fill-opacity="1" fill-rule="nonzero"/></g><path fill="#000000" d="M 8.519531 150.773438 L 68.382812 147.296875 C 78.320312 146.226562 88.164062 144.960938 98.035156 143.855469 L 127.660156 140.347656 L 125.839844 142.554688 L 123.273438 113.714844 L 120.835938 84.839844 L 119.894531 26.765625 L 119.894531 24.164062 L 122.492188 23.96875 C 138.734375 22.769531 154.972656 21.40625 171.214844 20.332031 L 219.933594 17.085938 L 222.726562 16.890625 L 222.726562 19.683594 C 223.152344 29.589844 223.476562 39.464844 223.769531 49.402344 C 224.058594 59.339844 224.289062 69.214844 224.808594 79.121094 L 229.515625 138.398438 L 227.535156 136.9375 C 247.933594 134.273438 268.296875 131.351562 288.695312 128.523438 L 319.910156 127.09375 L 351.121094 125.40625 L 352.195312 125.40625 L 352.195312 126.476562 L 355.214844 177.699219 L 358.464844 228.953125 L 358.464844 230.738281 L 356.644531 230.738281 L 295.613281 232.460938 L 295.839844 232.460938 L 236.566406 239.378906 L 239.066406 236.488281 L 241.503906 295.179688 L 246.925781 353.644531 L 247.25 356.894531 L 244.003906 357.21875 L 194.210938 362.15625 L 144.351562 366.863281 L 140.8125 367.222656 L 140.8125 363.648438 L 138.3125 303.203125 L 134.253906 242.886719 L 137.5 245.582031 L 76.40625 251.851562 L 15.113281 255.652344 L 13.164062 255.78125 L 13.164062 253.929688 C 12.320312 236.554688 11.476562 219.210938 10.792969 201.960938 Z M 9.007812 151.226562 L 12.96875 202.808594 C 14.367188 219.890625 15.601562 236.78125 16.835938 253.703125 L 14.855469 251.980469 L 75.949219 246.882812 L 136.851562 239.769531 L 139.839844 239.445312 L 140.097656 242.464844 L 144.839844 302.878906 L 147.375 363.390625 L 143.703125 360.140625 L 193.496094 355.171875 L 243.320312 350.527344 L 240.363281 354.101562 L 235.363281 295.570312 L 233.480469 236.714844 L 233.480469 234.085938 L 236.046875 233.824219 L 295.742188 227.6875 L 356.773438 227.230469 L 355.054688 229.082031 L 352.714844 177.796875 L 350.117188 126.511719 L 351.253906 127.519531 L 320.007812 129.011719 L 288.792969 130.734375 C 268.429688 133.785156 248.0625 136.710938 227.730469 139.957031 L 226.171875 140.183594 L 226.171875 138.5625 L 220.261719 79.316406 C 219.546875 69.410156 219.15625 59.472656 218.570312 49.566406 C 217.984375 39.660156 217.53125 29.71875 217.109375 19.8125 L 220 22.410156 L 171.28125 26.082031 C 155.039062 27.347656 138.800781 28.355469 122.558594 29.492188 L 125.125 26.699219 L 125.449219 84.480469 L 127.527344 113.292969 L 129.511719 142.101562 L 130.09375 144.050781 L 128.113281 144.050781 L 98.230469 147.296875 C 88.324219 148.207031 78.386719 149.34375 68.511719 149.992188 Z M 9.007812 151.226562 " fill-opacity="1" fill-rule="nonzero"/><path fill="#000000" d="M 24.402344 121.3125 L 53.3125 123.359375 L 84.523438 126.023438 L 144.679688 129.890625 L 141.429688 132.714844 L 144.191406 70.613281 L 145.554688 8.445312 L 145.554688 5.585938 L 148.382812 5.847656 L 250.078125 14.617188 L 252.578125 14.84375 L 252.285156 17.378906 L 245.367188 76.914062 L 245.367188 76.652344 L 245.140625 136.09375 L 243.125 133.949219 L 361.320312 142.359375 L 363.171875 142.359375 L 363.171875 144.179688 L 357.097656 243.765625 L 357.097656 245.355469 L 355.507812 245.355469 L 325.332031 244.058594 C 315.265625 243.636719 305.195312 243.277344 295.160156 242.726562 L 235.070312 236.488281 L 236.53125 235.15625 L 236.238281 296.21875 L 230.785156 356.828125 L 230.785156 357.835938 L 229.777344 357.835938 L 128.144531 351.566406 L 127.300781 351.566406 L 127.300781 350.753906 L 133.019531 290.601562 L 136.265625 230.285156 L 136.753906 230.835938 L 77.378906 227.589844 L 18.003906 223.269531 L 17.777344 223.269531 L 17.777344 223.042969 L 24.273438 123.683594 Z M 24.109375 125.859375 L 18.265625 223.042969 L 18.039062 222.78125 L 77.347656 226.777344 L 136.589844 229.667969 L 137.109375 229.667969 L 137.109375 230.1875 L 134.21875 290.535156 L 128.796875 350.753906 L 128.015625 349.878906 L 229.710938 355.660156 L 228.605469 356.601562 L 233.707031 296.1875 L 233.707031 233.761719 L 235.167969 233.761719 L 295.191406 239.867188 C 305.226562 240.355469 315.296875 240.648438 325.332031 241.035156 L 355.476562 242.171875 L 353.785156 243.699219 L 359.371094 144.050781 L 361.09375 146 L 242.867188 138.171875 L 240.886719 138.171875 L 240.886719 76.457031 L 247.382812 16.824219 L 249.558594 19.519531 L 148.121094 11.171875 L 151.011719 8.574219 L 149.941406 70.808594 L 147.4375 133.007812 L 147.4375 135.996094 L 144.417969 135.832031 L 84.199219 132.261719 C 74.457031 131.480469 64.9375 130.472656 55.355469 129.464844 L 26.480469 126.21875 Z M 24.109375 125.859375 " fill-opacity="1" fill-rule="nonzero"/><path fill="#000000" d="M 13.523438 129.984375 L 72.734375 128.945312 L 132.757812 128.167969 L 130.710938 130.214844 C 130.484375 110.269531 130.257812 90.328125 130.222656 70.386719 L 130.09375 10.589844 L 130.09375 7.796875 L 132.886719 7.796875 C 149.582031 7.632812 166.210938 7.632812 182.941406 7.632812 L 233.15625 7.828125 L 235.851562 7.828125 L 235.851562 10.523438 L 234.550781 130.148438 L 233.15625 128.753906 L 292.949219 129.078125 L 353.882812 129.078125 L 353.882812 130.179688 L 354.207031 180.394531 L 354.664062 230.609375 L 354.664062 232.363281 L 352.84375 232.363281 C 312.957031 232.820312 273.082031 233.164062 233.21875 233.402344 L 236.011719 230.578125 L 236.53125 349.585938 L 236.53125 352.832031 L 129.640625 352.832031 L 129.640625 290.082031 L 129.996094 230.578125 L 132.886719 233.46875 L 73.253906 233.078125 L 13.75 232.429688 L 11.898438 232.429688 L 11.898438 230.644531 C 11.898438 213.6875 12.289062 196.765625 12.644531 180.007812 Z M 13.976562 130.441406 L 14.789062 180.851562 C 15.148438 197.546875 15.375 214.078125 15.570312 230.609375 L 13.75 228.792969 L 73.253906 228.140625 L 132.757812 227.71875 L 135.617188 227.71875 L 135.617188 230.644531 L 136.007812 290.210938 L 136.007812 349.714844 L 132.757812 346.46875 L 233.15625 346.46875 L 229.90625 349.714844 L 230.425781 230.707031 L 230.425781 227.882812 L 233.253906 227.882812 C 273.136719 228.097656 313.011719 228.445312 352.878906 228.921875 L 351.089844 230.707031 L 351.546875 180.492188 L 351.804688 130.3125 L 352.878906 131.414062 L 293.046875 131.414062 L 233.253906 131.773438 L 231.824219 131.773438 L 231.824219 130.34375 L 230.457031 10.589844 L 233.15625 13.253906 L 182.941406 13.445312 C 166.210938 13.445312 149.484375 13.445312 132.757812 13.445312 L 135.550781 10.6875 L 135.292969 70.386719 C 135.292969 90.328125 135.03125 110.269531 134.804688 130.214844 L 134.804688 132.292969 L 132.757812 132.292969 L 73.773438 131.511719 Z M 13.976562 130.441406 " fill-opacity="1" fill-rule="nonzero"/><path fill="#000000" d="M 13.457031 141.222656 C 18.570312 142.136719 23.726562 142.65625 28.917969 142.785156 C 34.082031 143.042969 39.28125 143.207031 44.476562 143.304688 C 54.835938 143.53125 65.230469 143.59375 75.59375 143.5625 C 85.953125 143.53125 96.347656 143.367188 106.707031 143.074219 C 111.90625 142.914062 117.070312 142.71875 122.234375 142.425781 C 124.832031 142.425781 127.398438 142.070312 129.964844 141.839844 C 131.265625 141.839844 132.53125 141.582031 133.765625 141.386719 L 135.582031 141.0625 L 136.363281 140.835938 C 136.203125 140.996094 136.125 141.191406 136.136719 141.417969 C 136.121094 141.667969 136.195312 141.882812 136.363281 142.070312 L 137.953125 140.445312 C 137.796875 140.242188 137.59375 140.15625 137.335938 140.183594 C 137.011719 140.183594 136.6875 140.511719 136.753906 140.414062 C 136.816406 140.316406 136.753906 140.414062 136.753906 140.414062 C 136.859375 140.171875 136.933594 139.921875 136.980469 139.664062 C 136.980469 139.082031 137.207031 138.464844 137.304688 137.8125 C 137.304688 136.578125 137.566406 135.28125 137.695312 134.015625 C 137.890625 131.414062 138.019531 128.816406 138.148438 126.21875 C 138.34375 121.023438 138.472656 115.824219 138.539062 110.628906 C 138.703125 100.203125 138.539062 89.777344 138.539062 79.347656 C 138.539062 68.921875 138.246094 58.53125 137.855469 48.101562 C 137.664062 42.90625 137.402344 37.710938 137.078125 32.546875 C 136.882812 29.945312 136.6875 27.347656 136.429688 24.78125 C 136.261719 22.285156 135.902344 19.816406 135.355469 17.378906 L 139.089844 16.273438 C 140.089844 17.710938 141.421875 18.695312 143.085938 19.226562 C 145.09375 20.050781 147.148438 20.710938 149.257812 21.210938 C 153.648438 22.234375 158.085938 22.972656 162.574219 23.417969 C 171.535156 24.367188 180.523438 24.8125 189.535156 24.75 C 198.550781 24.722656 207.535156 24.195312 216.492188 23.160156 C 220.871094 22.640625 225.199219 21.863281 229.484375 20.820312 C 231.5625 20.316406 233.589844 19.644531 235.558594 18.804688 C 237.09375 18.308594 238.328125 17.398438 239.261719 16.078125 L 244.035156 17.378906 C 243.5 19.773438 243.152344 22.199219 242.996094 24.652344 C 242.769531 27.21875 242.605469 29.785156 242.445312 32.382812 C 242.152344 37.546875 241.988281 42.742188 241.828125 47.941406 C 241.566406 58.335938 241.46875 68.761719 241.40625 79.15625 C 241.339844 89.546875 241.40625 100.007812 241.695312 110.402344 C 241.695312 115.597656 241.988281 120.792969 242.25 125.957031 C 242.25 128.523438 242.574219 131.121094 242.769531 133.65625 C 242.769531 134.921875 243.027344 136.191406 243.191406 137.390625 C 243.191406 137.976562 243.386719 138.59375 243.484375 139.082031 C 243.46875 139.242188 243.46875 139.40625 243.484375 139.566406 C 243.410156 139.410156 243.3125 139.269531 243.191406 139.144531 C 243.046875 139.007812 242.894531 138.878906 242.734375 138.757812 C 242.339844 138.503906 241.90625 138.375 241.4375 138.367188 C 240.679688 138.308594 240.027344 138.546875 239.488281 139.082031 L 243.777344 143.238281 C 244.335938 142.707031 244.585938 142.058594 244.523438 141.289062 C 244.515625 140.8125 244.375 140.378906 244.101562 139.988281 C 243.777344 139.535156 243.875 139.664062 243.742188 139.535156 C 243.617188 139.414062 243.476562 139.316406 243.320312 139.242188 L 243.808594 139.242188 C 244.363281 139.378906 244.925781 139.476562 245.496094 139.535156 L 249.230469 139.957031 C 251.765625 140.152344 254.363281 140.316406 256.929688 140.445312 C 262.09375 140.671875 267.292969 140.835938 272.488281 140.933594 C 282.882812 141.160156 293.308594 141.191406 303.703125 141.128906 C 314.09375 141.0625 324.554688 140.898438 334.914062 140.542969 C 340.113281 140.378906 345.308594 140.152344 350.472656 139.828125 C 353.070312 139.675781 355.636719 139.480469 358.171875 139.242188 C 360.578125 139.050781 362.960938 138.695312 365.316406 138.171875 L 367.070312 144.050781 C 366 144.921875 365.21875 146.003906 364.730469 147.296875 C 363.933594 149.238281 363.292969 151.230469 362.816406 153.273438 C 361.796875 157.558594 361.050781 161.890625 360.574219 166.265625 C 358.644531 184.164062 358.644531 202.058594 360.574219 219.957031 C 361.0625 224.335938 361.820312 228.664062 362.847656 232.949219 C 363.34375 234.980469 363.992188 236.960938 364.796875 238.894531 C 365.246094 240.183594 365.992188 241.265625 367.039062 242.140625 L 365.15625 248.378906 C 362.820312 247.847656 360.460938 247.492188 358.074219 247.304688 C 355.496094 247.066406 352.929688 246.871094 350.375 246.71875 C 345.210938 246.394531 340.015625 246.167969 334.816406 245.972656 C 324.425781 245.648438 314.019531 245.453125 303.605469 245.390625 C 293.210938 245.390625 282.785156 245.390625 272.390625 245.582031 C 267.195312 245.582031 261.996094 245.84375 256.832031 246.101562 C 254.265625 246.101562 251.667969 246.363281 249.136719 246.589844 C 247.867188 246.589844 246.632812 246.816406 245.433594 247.011719 C 244.871094 247.066406 244.320312 247.164062 243.777344 247.304688 L 243.289062 247.304688 C 243.464844 247.207031 243.628906 247.085938 243.777344 246.949219 L 244.164062 246.429688 C 244.441406 246.015625 244.582031 245.5625 244.585938 245.0625 C 244.632812 244.265625 244.371094 243.585938 243.808594 243.019531 L 239.457031 247.304688 C 240.023438 247.867188 240.703125 248.140625 241.503906 248.117188 C 242.007812 248.113281 242.472656 247.972656 242.898438 247.695312 L 243.417969 247.304688 C 243.5625 247.160156 243.679688 246.996094 243.777344 246.816406 C 243.757812 246.96875 243.757812 247.121094 243.777344 247.273438 C 243.636719 247.816406 243.539062 248.371094 243.484375 248.929688 C 243.289062 250.132812 243.160156 251.363281 243.0625 252.632812 C 242.832031 255.164062 242.671875 257.730469 242.542969 260.296875 C 242.28125 265.429688 242.121094 270.59375 241.988281 275.757812 C 241.730469 286.085938 241.664062 296.449219 241.695312 306.808594 C 241.730469 317.171875 241.695312 327.53125 242.183594 337.859375 C 242.183594 343.058594 242.542969 348.222656 242.832031 353.351562 C 242.832031 355.917969 243.191406 358.484375 243.417969 361.019531 C 243.585938 363.425781 243.933594 365.808594 244.457031 368.164062 L 239 369.789062 C 238.082031 368.605469 236.910156 367.773438 235.492188 367.289062 C 233.539062 366.480469 231.539062 365.832031 229.484375 365.339844 C 225.199219 364.304688 220.871094 363.535156 216.492188 363.03125 C 207.554688 362.039062 198.589844 361.554688 189.597656 361.570312 C 180.609375 361.515625 171.644531 361.949219 162.703125 362.871094 C 158.332031 363.359375 154 364.09375 149.710938 365.078125 C 147.632812 365.5625 145.609375 366.210938 143.640625 367.027344 C 142.121094 367.53125 140.875 368.417969 139.902344 369.691406 L 135.128906 368.261719 C 135.671875 365.882812 136.050781 363.480469 136.265625 361.050781 C 136.492188 358.519531 136.71875 355.953125 136.882812 353.386719 C 137.207031 348.210938 137.46875 343.046875 137.664062 337.894531 C 138.050781 327.53125 138.246094 317.171875 138.34375 306.808594 C 138.441406 296.449219 138.34375 286.085938 138.34375 275.726562 C 138.34375 270.5625 138.117188 265.363281 137.890625 260.230469 C 137.761719 257.632812 137.597656 255.066406 137.402344 252.535156 C 137.402344 251.269531 137.175781 250 137.011719 248.765625 C 137.011719 248.148438 136.816406 247.53125 136.6875 247.011719 C 136.648438 246.792969 136.59375 246.574219 136.527344 246.363281 C 136.527344 246.363281 136.527344 246.558594 136.527344 246.589844 C 136.839844 246.871094 137.210938 247.023438 137.628906 247.046875 C 138.089844 247.070312 138.476562 246.917969 138.800781 246.589844 L 136.136719 243.925781 C 135.820312 244.238281 135.667969 244.617188 135.679688 245.0625 C 135.6875 245.492188 135.839844 245.859375 136.136719 246.167969 C 136.136719 246.167969 136.363281 246.363281 136.363281 246.363281 L 135.714844 246.167969 C 135.195312 246.167969 134.578125 245.941406 133.960938 245.84375 C 132.726562 245.84375 131.457031 245.519531 130.191406 245.421875 C 127.660156 245.160156 125.09375 245 122.496094 244.867188 C 117.101562 244.902344 111.875 244.738281 106.707031 244.738281 C 96.347656 244.445312 85.984375 244.347656 75.59375 244.285156 C 65.199219 244.21875 54.871094 244.285156 44.507812 244.578125 C 39.3125 244.578125 34.148438 244.867188 28.984375 245.160156 C 23.863281 245.304688 18.789062 245.832031 13.75 246.753906 L 13.164062 244.738281 C 14.035156 244.242188 14.789062 243.601562 15.421875 242.824219 C 16.054688 242.042969 16.523438 241.179688 16.835938 240.222656 C 17.714844 238.183594 18.417969 236.082031 18.945312 233.921875 C 20.023438 229.542969 20.835938 225.117188 21.382812 220.640625 C 22.398438 211.59375 22.90625 202.523438 22.910156 193.421875 C 23.023438 184.335938 22.632812 175.273438 21.738281 166.234375 C 21.324219 161.71875 20.632812 157.25 19.660156 152.820312 C 19.15625 150.597656 18.472656 148.433594 17.613281 146.324219 C 17.273438 145.238281 16.746094 144.253906 16.027344 143.375 C 15.308594 142.492188 14.453125 141.777344 13.457031 141.222656 Z M 13.457031 141.222656 C 14.480469 141.746094 15.367188 142.445312 16.113281 143.316406 C 16.863281 144.1875 17.417969 145.167969 17.777344 146.257812 C 18.695312 148.363281 19.433594 150.527344 19.984375 152.753906 C 21.085938 157.1875 21.90625 161.667969 22.453125 166.203125 C 23.558594 175.242188 24.144531 184.3125 24.207031 193.421875 C 24.277344 202.550781 23.84375 211.65625 22.910156 220.734375 C 22.449219 225.296875 21.703125 229.8125 20.667969 234.28125 C 20.144531 236.503906 19.441406 238.667969 18.558594 240.777344 C 18.097656 241.925781 17.511719 243.007812 16.804688 244.023438 C 16.019531 245.160156 14.992188 245.996094 13.71875 246.527344 L 13.164062 244.738281 C 18.332031 243.679688 23.550781 243.03125 28.820312 242.789062 C 34.019531 242.433594 39.214844 242.171875 44.410156 241.976562 C 54.804688 241.546875 65.199219 241.273438 75.59375 241.167969 C 85.984375 241.167969 96.378906 241.167969 106.773438 241.167969 C 111.96875 241.167969 117.199219 241.394531 122.398438 241.621094 C 124.996094 241.621094 127.625 241.882812 130.222656 242.109375 C 131.554688 242.109375 132.855469 242.335938 134.21875 242.53125 C 134.902344 242.53125 135.550781 242.726562 136.296875 242.886719 C 136.707031 242.992188 137.109375 243.121094 137.5 243.277344 L 137.890625 243.277344 C 138.113281 243.40625 138.320312 243.554688 138.507812 243.730469 C 138.945312 244.132812 139.171875 244.632812 139.1875 245.226562 C 139.195312 245.839844 138.988281 246.371094 138.570312 246.816406 L 135.910156 244.15625 C 136.351562 243.75 136.871094 243.535156 137.46875 243.503906 C 138.066406 243.527344 138.578125 243.753906 138.992188 244.1875 C 139.171875 244.386719 139.324219 244.601562 139.449219 244.835938 L 139.449219 245.195312 C 139.605469 245.597656 139.734375 246.007812 139.839844 246.429688 C 140.007812 247.113281 140.140625 247.804688 140.226562 248.507812 C 140.421875 249.839844 140.554688 251.171875 140.683594 252.46875 C 140.941406 255.101562 141.105469 257.699219 141.269531 260.328125 C 141.527344 265.527344 141.722656 270.722656 141.886719 275.921875 C 142.144531 286.335938 142.273438 296.738281 142.273438 307.132812 C 142.273438 317.527344 142.273438 327.921875 141.886719 338.347656 C 141.886719 343.542969 141.558594 348.742188 141.234375 353.96875 C 141.234375 356.570312 140.941406 359.199219 140.683594 361.832031 C 140.503906 364.582031 140.089844 367.300781 139.449219 369.984375 L 134.675781 368.554688 C 135.285156 366.949219 136.292969 365.648438 137.695312 364.65625 C 138.25 364.257812 138.824219 363.890625 139.417969 363.550781 L 141.136719 362.707031 C 143.359375 361.75 145.644531 360.980469 147.992188 360.402344 C 152.53125 359.308594 157.125 358.484375 161.761719 357.933594 C 180.167969 355.902344 198.574219 355.902344 216.980469 357.933594 C 221.625 358.453125 226.226562 359.246094 230.785156 360.304688 C 233.148438 360.878906 235.457031 361.636719 237.703125 362.578125 L 239.457031 363.421875 C 240.039062 363.746094 240.625 364.167969 241.210938 364.558594 C 242.71875 365.570312 243.800781 366.925781 244.457031 368.617188 L 239 370.242188 C 238.371094 367.535156 237.945312 364.796875 237.734375 362.027344 C 237.472656 359.394531 237.28125 356.765625 237.117188 354.164062 C 236.792969 348.9375 236.597656 343.738281 236.402344 338.511719 C 236.046875 328.117188 235.882812 317.691406 235.816406 307.296875 C 235.753906 296.902344 235.816406 286.507812 236.011719 276.082031 C 236.011719 270.886719 236.273438 265.65625 236.5 260.425781 C 236.5 257.828125 236.792969 255.199219 237.019531 252.566406 C 237.019531 251.234375 237.28125 249.902344 237.472656 248.507812 C 237.472656 247.824219 237.667969 247.144531 237.863281 246.332031 C 237.945312 245.847656 238.085938 245.382812 238.285156 244.933594 L 238.480469 244.445312 C 238.664062 244.128906 238.882812 243.839844 239.132812 243.570312 C 239.316406 243.351562 239.535156 243.164062 239.78125 243.019531 C 240.292969 242.714844 240.84375 242.542969 241.4375 242.496094 C 242.394531 242.5 243.21875 242.835938 243.90625 243.503906 L 239.554688 247.792969 C 238.886719 247.089844 238.574219 246.257812 238.609375 245.292969 C 238.644531 244.722656 238.804688 244.191406 239.097656 243.699219 C 239.257812 243.441406 239.453125 243.214844 239.683594 243.019531 C 239.9375 242.773438 240.21875 242.566406 240.527344 242.402344 L 241.015625 242.171875 C 241.480469 242 241.957031 241.859375 242.445312 241.75 C 243.160156 241.578125 243.886719 241.449219 244.621094 241.359375 C 246.015625 241.167969 247.347656 241.003906 248.679688 240.90625 C 251.34375 240.648438 253.972656 240.484375 256.605469 240.355469 C 261.835938 240.09375 267.097656 239.898438 272.324219 239.769531 C 282.785156 239.554688 293.242188 239.457031 303.703125 239.476562 C 314.160156 239.5 324.628906 239.671875 335.109375 239.996094 C 340.339844 239.996094 345.570312 240.355469 350.832031 240.679688 C 353.460938 240.679688 356.09375 241.003906 358.757812 241.265625 C 361.570312 241.464844 364.355469 241.886719 367.101562 242.53125 L 365.21875 248.765625 C 364.28125 248.394531 363.414062 247.894531 362.621094 247.273438 C 362 246.730469 361.445312 246.125 360.964844 245.453125 C 360.574219 244.867188 360.152344 244.253906 359.796875 243.667969 L 358.949219 241.882812 C 357.996094 239.605469 357.226562 237.265625 356.644531 234.863281 C 355.570312 230.300781 354.78125 225.691406 354.273438 221.027344 C 352.292969 202.621094 352.292969 184.21875 354.273438 165.8125 C 354.789062 161.152344 355.59375 156.539062 356.675781 151.976562 C 357.261719 149.597656 358.027344 147.28125 358.984375 145.023438 L 359.859375 143.238281 C 360.183594 142.652344 360.605469 142.035156 360.996094 141.453125 C 362.066406 139.945312 363.464844 138.863281 365.1875 138.203125 L 366.941406 144.082031 C 364.203125 144.726562 361.429688 145.152344 358.625 145.347656 C 355.960938 145.609375 353.332031 145.773438 350.699219 145.933594 C 345.472656 146.226562 340.242188 146.453125 334.980469 146.617188 C 324.523438 146.898438 314.0625 147.058594 303.605469 147.101562 C 293.144531 147.148438 282.6875 147.050781 272.226562 146.8125 C 267 146.8125 261.769531 146.519531 256.507812 146.226562 C 253.875 146.226562 251.246094 145.933594 248.613281 145.707031 C 247.285156 145.707031 245.953125 145.445312 244.554688 145.253906 C 243.871094 145.253906 243.191406 145.058594 242.378906 144.863281 C 241.914062 144.753906 241.460938 144.613281 241.015625 144.441406 L 240.527344 144.308594 C 240.222656 144.148438 239.941406 143.953125 239.683594 143.726562 C 239.472656 143.550781 239.300781 143.34375 239.164062 143.109375 C 238.859375 142.644531 238.6875 142.136719 238.644531 141.582031 C 238.621094 140.65625 238.933594 139.867188 239.585938 139.210938 L 243.777344 143.238281 C 243.113281 143.878906 242.324219 144.179688 241.40625 144.148438 C 240.855469 144.113281 240.34375 143.953125 239.878906 143.660156 C 239.640625 143.523438 239.4375 143.351562 239.261719 143.140625 C 239.039062 142.875 238.847656 142.59375 238.675781 142.296875 L 238.480469 141.839844 C 238.308594 141.398438 238.167969 140.941406 238.058594 140.476562 C 237.863281 139.664062 237.765625 138.984375 237.667969 138.300781 C 237.28125 136.90625 237.28125 135.574219 237.28125 134.304688 C 237.050781 131.644531 236.890625 129.011719 236.761719 126.414062 C 236.5 121.152344 236.371094 115.921875 236.238281 110.691406 C 236.046875 100.203125 236.011719 89.742188 236.046875 79.316406 C 236.078125 68.890625 236.335938 58.398438 236.726562 47.941406 C 236.921875 42.710938 237.148438 37.480469 237.507812 32.21875 C 237.507812 29.621094 237.863281 26.992188 238.125 24.328125 C 238.328125 21.5625 238.761719 18.835938 239.421875 16.144531 L 244.035156 17.378906 C 243.414062 18.984375 242.394531 20.285156 240.980469 21.273438 C 239.914062 22.058594 238.765625 22.695312 237.539062 23.191406 C 235.347656 24.144531 233.09375 24.921875 230.785156 25.53125 C 226.25 26.582031 221.671875 27.351562 217.042969 27.835938 C 207.898438 28.796875 198.730469 29.242188 189.535156 29.167969 C 180.355469 29.140625 171.207031 28.609375 162.085938 27.574219 C 157.476562 27.042969 152.917969 26.21875 148.414062 25.105469 C 146.085938 24.554688 143.824219 23.808594 141.625 22.867188 C 140.476562 22.339844 139.394531 21.699219 138.378906 20.949219 C 137.003906 20.070312 135.996094 18.878906 135.355469 17.378906 L 139.089844 16.273438 C 139.714844 18.933594 140.113281 21.632812 140.292969 24.359375 C 140.554688 26.992188 140.714844 29.621094 140.878906 32.21875 C 141.171875 37.480469 141.363281 42.710938 141.496094 47.941406 C 141.789062 58.367188 141.886719 68.824219 141.886719 79.285156 C 141.886719 89.742188 141.722656 100.167969 141.398438 110.628906 C 141.398438 115.855469 141.039062 121.054688 140.714844 126.285156 C 140.714844 128.914062 140.390625 131.511719 140.132812 134.144531 C 140.132812 135.441406 139.871094 136.773438 139.675781 138.105469 C 139.675781 138.757812 139.449219 139.4375 139.285156 140.121094 C 139.214844 140.5 139.105469 140.867188 138.960938 141.222656 C 138.847656 141.515625 138.683594 141.773438 138.472656 142.003906 C 138.21875 142.304688 137.894531 142.464844 137.5 142.492188 C 137.089844 142.484375 136.734375 142.34375 136.429688 142.070312 L 138.050781 140.445312 C 138.316406 140.742188 138.457031 141.085938 138.472656 141.484375 C 138.441406 141.882812 138.277344 142.21875 137.988281 142.492188 C 137.75 142.683594 137.492188 142.832031 137.207031 142.945312 C 136.851562 143.089844 136.480469 143.199219 136.101562 143.269531 C 135.441406 143.425781 134.769531 143.535156 134.089844 143.59375 C 132.757812 143.789062 131.457031 143.921875 130.160156 144.019531 C 127.5625 144.210938 124.960938 144.34375 122.363281 144.472656 C 117.136719 144.667969 111.9375 144.796875 106.742188 144.863281 C 96.378906 144.863281 85.984375 144.863281 75.59375 144.863281 C 65.199219 144.863281 54.835938 144.472656 44.445312 144.019531 C 39.246094 143.789062 34.082031 143.53125 28.886719 143.171875 C 23.695312 142.917969 18.550781 142.265625 13.457031 141.222656 Z M 13.457031 141.222656 " fill-opacity="1" fill-rule="nonzero"/></svg>